# xmcd
# 
# Track frame offsets:
#     150
#     10830
#     23103
#     34367
#     45850
#     62020
#     74652
#     86912
#     101537
#     118969
#     138118
#     152622
#     164845
#     176894
#     188046
# 
# Disc length: 2661
# 
# Revision: 3
# Processed by: cddbd v1.5.2PL0 Copyright (c) Steve Scherf et al.
# Submitted via: fre:ac v1.0.27
# 
DISCID=cf0a630f
DTITLE=Various Artist - Country Classics CD1
DYEAR=1997
DGENRE=Country
TTITLE0=Faron Young - Hello Walls
TTITLE1=Merle Haggard - Okie From Muskogee
TTITLE2=Donna Fargo - The Happiest Girl In The Whole USA
TTITLE3=Freddy Fender - Before THe Next Teardrop Falls
TTITLE4=Carl Smith - Country Bumpkin
TTITLE5=Don Williams - You're My Best Friend
TTITLE6=Patsy Kline - Crazy
TTITLE7=Jeanne Pruett - Satin Sheets
TTITLE8=Marie Osmond and Dan Seals - Meet Me In Montana
TTITLE9=Bobby Gentry - Ode To Bille Joe
TTITLE10=Jane C. Riley - Harper Valley PTA
TTITLE11=Jonny Cash - I Walk The Line
TTITLE12=Glen Campbell - Galveston
TTITLE13=Conway Twitty - Hello Darling
TTITLE14=Tennessee Ernie Ford - Sixteen Tons
EXTD=YEAR: 1997 ID3G: 2
EXTT0=
EXTT1=
EXTT2=
EXTT3=
EXTT4=
EXTT5=
EXTT6=
EXTT7=
EXTT8=
EXTT9=
EXTT10=
EXTT11=
EXTT12=
EXTT13=
EXTT14=
PLAYORDER=
